# xmcd CD database file
# Copyright (C) 1993-1998 Ti Kan
#
# Track frame offsets:
#  225
#  11875
#  17410
#  22052
#  32997
#  37690
#  45922
#  55172
#  62505
#  71225
#  77582
#  86045
#  91627
#  99402
#  105472
#  114672
#  121237
#  129502
#  137405
#  149062
#  153372
#  160567
#  167782
#  176010
#
# Disc length: 2437 seconds
#
# Revision: 1
# Processed by: cddbd v1.4b41PL1 Copyright (c) Steve Scherf et al.
# Submitted via: KiC 2.1 - (C) 1996-1998 Alwin Hoogerdijk
#
DISCID=2f098218
DTITLE=Various Artist - 24 Fiddle Favorites
DYEAR=1900
DGENRE=
TTITLE0=Clarence "Tater" Tate - Life in the Finland Woods
TTITLE1=Clarence "Tater" Tate - Katy Hill
TTITLE2=Clarence "Tater" Tate - Prosperity Special
TTITLE3=Clarence "Tater" Tate - Irene Waltz
TTITLE4=Clarence "Tater" Tate - Sally Goodin
TTITLE5=Clarence "Tater" Tate - Whistlin' Rufus
TTITLE6=Dale Potter - Back Up and Push
TTITLE7=Dale Potter - La Raspa
TTITLE8=Dale Potter - Gallopin' On the Fiddle
TTITLE9=Dale Potter - Dill Pickle Rag
TTITLE10=Dale Potter - Fiddle Patch
TTITLE11=Dale Potter - Corina
TTITLE12=Buck Ryan - Kentucky Running Dance
TTITLE13=Buck Ryan - Wonderin'
TTITLE14=Buck Ryan - Natural Bridge Blues
TTITLE15=Buck Ryan - Kingdom Coming
TTITLE16=Buck Ryan - Lee Highway Blues
TTITLE17=Buck Ryan - Ryan's Schottische
TTITLE18=Vassar Clements - Black Hawk Waltz
TTITLE19=Vassar Clements - Fast Travelin'
TTITLE20=Vassar Clements - Columbus Rag
TTITLE21=Vassar Clements - Old Clem
TTITLE22=Vassar Clements - Mississippi Waltz
TTITLE23=Vassar Clements - Londonderry Air
EXTD=
EXTT0=
EXTT1=
EXTT2=
EXTT3=
EXTT4=
EXTT5=
EXTT6=
EXTT7=
EXTT8=
EXTT9=
EXTT10=
EXTT11=
EXTT12=
EXTT13=
EXTT14=
EXTT15=
EXTT16=
EXTT17=
EXTT18=
EXTT19=
EXTT20=
EXTT21=
EXTT22=
EXTT23=
PLAYORDER=
